<svg id="visual" viewBox="0 0 960 200" width="960" height="200" xmlns="http://www.w3.org/2000/svg" xmlns:xlink="http://www.w3.org/1999/xlink" version="1.1"><path d="M0 132L10.7 140.5C21.3 149 42.7 166 64 170.8C85.3 175.7 106.7 168.3 128 169.3C149.3 170.3 170.7 179.7 192 174.3C213.3 169 234.7 149 256 138.2C277.3 127.3 298.7 125.7 320 128C341.3 130.3 362.7 136.7 384 137.3C405.3 138 426.7 133 448 130.5C469.3 128 490.7 128 512 138.8C533.3 149.7 554.7 171.3 576 179.3C597.3 187.3 618.7 181.7 640 180.2C661.3 178.7 682.7 181.3 704 179.2C725.3 177 746.7 170 768 166.7C789.3 163.3 810.7 163.7 832 158.7C853.3 153.7 874.7 143.3 896 143C917.3 142.7 938.7 152.3 949.3 157.2L960 162L960 201L949.3 201C938.7 201 917.3 201 896 201C874.7 201 853.3 201 832 201C810.7 201 789.3 201 768 201C746.7 201 725.3 201 704 201C682.7 201 661.3 201 640 201C618.7 201 597.3 201 576 201C554.7 201 533.3 201 512 201C490.7 201 469.3 201 448 201C426.7 201 405.3 201 384 201C362.7 201 341.3 201 320 201C298.7 201 277.3 201 256 201C234.7 201 213.3 201 192 201C170.7 201 149.3 201 128 201C106.7 201 85.3 201 64 201C42.7 201 21.3 201 10.7 201L0 201Z" fill="#ad5389"></path><path d="M0 149L10.7 155.7C21.3 162.3 42.7 175.7 64 183.2C85.3 190.7 106.7 192.3 128 190.7C149.3 189 170.7 184 192 183.3C213.3 182.7 234.7 186.3 256 187.7C277.3 189 298.7 188 320 180.5C341.3 173 362.7 159 384 156C405.3 153 426.7 161 448 168.8C469.3 176.7 490.7 184.3 512 182.2C533.3 180 554.7 168 576 161.7C597.3 155.3 618.7 154.7 640 154.2C661.3 153.7 682.7 153.3 704 159.2C725.3 165 746.7 177 768 184C789.3 191 810.7 193 832 187.2C853.3 181.3 874.7 167.7 896 163C917.3 158.3 938.7 162.7 949.3 164.8L960 167L960 201L949.3 201C938.7 201 917.3 201 896 201C874.7 201 853.3 201 832 201C810.7 201 789.3 201 768 201C746.7 201 725.3 201 704 201C682.7 201 661.3 201 640 201C618.7 201 597.3 201 576 201C554.7 201 533.3 201 512 201C490.7 201 469.3 201 448 201C426.7 201 405.3 201 384 201C362.7 201 341.3 201 320 201C298.7 201 277.3 201 256 201C234.7 201 213.3 201 192 201C170.7 201 149.3 201 128 201C106.7 201 85.3 201 64 201C42.7 201 21.3 201 10.7 201L0 201Z" fill="#9d4882"></path><path d="M0 154L10.7 157C21.3 160 42.7 166 64 168.8C85.3 171.7 106.7 171.3 128 168.2C149.3 165 170.7 159 192 154.7C213.3 150.3 234.7 147.7 256 149.8C277.3 152 298.7 159 320 166.8C341.3 174.7 362.7 183.3 384 185.7C405.3 188 426.7 184 448 177.2C469.3 170.3 490.7 160.7 512 155.3C533.3 150 554.7 149 576 155.7C597.3 162.3 618.7 176.7 640 182C661.3 187.3 682.7 183.7 704 181.5C725.3 179.3 746.7 178.7 768 174.3C789.3 170 810.7 162 832 163.7C853.3 165.3 874.7 176.7 896 182.5C917.3 188.3 938.7 188.7 949.3 188.8L960 189L960 201L949.3 201C938.7 201 917.3 201 896 201C874.7 201 853.3 201 832 201C810.7 201 789.3 201 768 201C746.7 201 725.3 201 704 201C682.7 201 661.3 201 640 201C618.7 201 597.3 201 576 201C554.7 201 533.3 201 512 201C490.7 201 469.3 201 448 201C426.7 201 405.3 201 384 201C362.7 201 341.3 201 320 201C298.7 201 277.3 201 256 201C234.7 201 213.3 201 192 201C170.7 201 149.3 201 128 201C106.7 201 85.3 201 64 201C42.7 201 21.3 201 10.7 201L0 201Z" fill="#8d3e7a"></path><path d="M0 154L10.7 156.2C21.3 158.3 42.7 162.7 64 169.2C85.3 175.7 106.7 184.3 128 183C149.3 181.7 170.7 170.3 192 163.2C213.3 156 234.7 153 256 153.5C277.3 154 298.7 158 320 164.5C341.3 171 362.7 180 384 183.5C405.3 187 426.7 185 448 184C469.3 183 490.7 183 512 180.3C533.3 177.7 554.7 172.3 576 172C597.3 171.7 618.7 176.3 640 173.8C661.3 171.3 682.7 161.7 704 160.2C725.3 158.7 746.7 165.3 768 171.8C789.3 178.3 810.7 184.7 832 185.8C853.3 187 874.7 183 896 182.3C917.3 181.7 938.7 184.3 949.3 185.7L960 187L960 201L949.3 201C938.7 201 917.3 201 896 201C874.7 201 853.3 201 832 201C810.7 201 789.3 201 768 201C746.7 201 725.3 201 704 201C682.7 201 661.3 201 640 201C618.7 201 597.3 201 576 201C554.7 201 533.3 201 512 201C490.7 201 469.3 201 448 201C426.7 201 405.3 201 384 201C362.7 201 341.3 201 320 201C298.7 201 277.3 201 256 201C234.7 201 213.3 201 192 201C170.7 201 149.3 201 128 201C106.7 201 85.3 201 64 201C42.7 201 21.3 201 10.7 201L0 201Z" fill="#7d3473"></path><path d="M0 158L10.7 158.8C21.3 159.7 42.7 161.3 64 167.3C85.3 173.3 106.7 183.7 128 189.2C149.3 194.7 170.7 195.3 192 195C213.3 194.7 234.7 193.3 256 193.2C277.3 193 298.7 194 320 191.2C341.3 188.3 362.7 181.7 384 181.2C405.3 180.7 426.7 186.3 448 185.3C469.3 184.3 490.7 176.7 512 172.8C533.3 169 554.7 169 576 169.5C597.3 170 618.7 171 640 169.3C661.3 167.7 682.7 163.3 704 162.3C725.3 161.3 746.7 163.7 768 164C789.3 164.3 810.7 162.7 832 163.2C853.3 163.7 874.7 166.3 896 166.2C917.3 166 938.7 163 949.3 161.5L960 160L960 201L949.3 201C938.7 201 917.3 201 896 201C874.7 201 853.3 201 832 201C810.7 201 789.3 201 768 201C746.7 201 725.3 201 704 201C682.7 201 661.3 201 640 201C618.7 201 597.3 201 576 201C554.7 201 533.3 201 512 201C490.7 201 469.3 201 448 201C426.7 201 405.3 201 384 201C362.7 201 341.3 201 320 201C298.7 201 277.3 201 256 201C234.7 201 213.3 201 192 201C170.7 201 149.3 201 128 201C106.7 201 85.3 201 64 201C42.7 201 21.3 201 10.7 201L0 201Z" fill="#6d2a6b"></path><path d="M0 169L10.7 171.2C21.3 173.3 42.7 177.7 64 182C85.3 186.3 106.7 190.7 128 189.2C149.3 187.7 170.7 180.3 192 179C213.3 177.7 234.7 182.3 256 184.7C277.3 187 298.7 187 320 184C341.3 181 362.7 175 384 174.8C405.3 174.7 426.7 180.3 448 180.7C469.3 181 490.7 176 512 173.7C533.3 171.3 554.7 171.7 576 174.5C597.3 177.3 618.7 182.7 640 184.8C661.3 187 682.7 186 704 182.5C725.3 179 746.7 173 768 169.8C789.3 166.7 810.7 166.3 832 168.3C853.3 170.3 874.7 174.7 896 179C917.3 183.3 938.7 187.7 949.3 189.8L960 192L960 201L949.3 201C938.7 201 917.3 201 896 201C874.7 201 853.3 201 832 201C810.7 201 789.3 201 768 201C746.7 201 725.3 201 704 201C682.7 201 661.3 201 640 201C618.7 201 597.3 201 576 201C554.7 201 533.3 201 512 201C490.7 201 469.3 201 448 201C426.7 201 405.3 201 384 201C362.7 201 341.3 201 320 201C298.7 201 277.3 201 256 201C234.7 201 213.3 201 192 201C170.7 201 149.3 201 128 201C106.7 201 85.3 201 64 201C42.7 201 21.3 201 10.7 201L0 201Z" fill="#5d2163"></path><path d="M0 193L10.7 192.2C21.3 191.3 42.7 189.7 64 188C85.3 186.3 106.7 184.7 128 185.2C149.3 185.7 170.7 188.3 192 187C213.3 185.7 234.7 180.3 256 180.2C277.3 180 298.7 185 320 188.3C341.3 191.7 362.7 193.3 384 191.2C405.3 189 426.7 183 448 183.3C469.3 183.7 490.7 190.3 512 192C533.3 193.7 554.7 190.3 576 189.5C597.3 188.7 618.7 190.3 640 190.2C661.3 190 682.7 188 704 185.8C725.3 183.7 746.7 181.3 768 180.5C789.3 179.7 810.7 180.3 832 179.8C853.3 179.3 874.7 177.7 896 176.5C917.3 175.3 938.7 174.7 949.3 174.3L960 174L960 201L949.3 201C938.7 201 917.3 201 896 201C874.7 201 853.3 201 832 201C810.7 201 789.3 201 768 201C746.7 201 725.3 201 704 201C682.7 201 661.3 201 640 201C618.7 201 597.3 201 576 201C554.7 201 533.3 201 512 201C490.7 201 469.3 201 448 201C426.7 201 405.3 201 384 201C362.7 201 341.3 201 320 201C298.7 201 277.3 201 256 201C234.7 201 213.3 201 192 201C170.7 201 149.3 201 128 201C106.7 201 85.3 201 64 201C42.7 201 21.3 201 10.7 201L0 201Z" fill="#4c185b"></path><path d="M0 187L10.7 186.3C21.3 185.7 42.7 184.3 64 185.8C85.3 187.3 106.7 191.7 128 192C149.3 192.3 170.7 188.7 192 186.8C213.3 185 234.7 185 256 184.7C277.3 184.3 298.7 183.7 320 184.3C341.3 185 362.7 187 384 188C405.3 189 426.7 189 448 189.3C469.3 189.7 490.7 190.3 512 189.5C533.3 188.7 554.7 186.3 576 187.2C597.3 188 618.7 192 640 193.8C661.3 195.7 682.7 195.3 704 195C725.3 194.7 746.7 194.3 768 192.2C789.3 190 810.7 186 832 184.2C853.3 182.3 874.7 182.7 896 182.8C917.3 183 938.7 183 949.3 183L960 183L960 201L949.3 201C938.7 201 917.3 201 896 201C874.7 201 853.3 201 832 201C810.7 201 789.3 201 768 201C746.7 201 725.3 201 704 201C682.7 201 661.3 201 640 201C618.7 201 597.3 201 576 201C554.7 201 533.3 201 512 201C490.7 201 469.3 201 448 201C426.7 201 405.3 201 384 201C362.7 201 341.3 201 320 201C298.7 201 277.3 201 256 201C234.7 201 213.3 201 192 201C170.7 201 149.3 201 128 201C106.7 201 85.3 201 64 201C42.7 201 21.3 201 10.7 201L0 201Z" fill="#3c1053"></path></svg>